<?xml version="1.0" encoding="utf-8"?>
<!-- Generator: Adobe Illustrator 27.5.0, SVG Export Plug-In . SVG Version: 6.00 Build 0)  -->
<svg version="1.1" xmlns="http://www.w3.org/2000/svg" xmlns:xlink="http://www.w3.org/1999/xlink" x="0px" y="0px"
	 viewBox="0 0 750 500" style="enable-background:new 0 0 750 500;" xml:space="preserve">
<g id="BACKGROUND">
	<rect style="fill:#FFFFFF;" width="750" height="500"/>
</g>
<g id="OBJECTS">
	<g>
		<polygon style="fill:#221925;" points="68.001,500 256.001,400.995 503.5,379.317 497,386 267.501,420.5 153.335,500 		"/>
		<g>
			<g>
				<polygon style="fill:#221925;" points="453.168,297.5 389.835,312.833 416.686,365.245 334.835,372.25 335.501,412.083 
					341.251,410.25 341.501,382.25 348.001,381.869 348.501,410.001 353.835,408.501 354.501,382.501 361.314,382.27 
					361.501,408.25 366.835,406.75 367.468,382.063 453.168,379.167 452.788,378.167 453.168,378.167 				"/>
				<g>
					<path style="fill:#006395;" d="M256.335,273c0,0,37.333,81.333,238,74l1.333-68L256.335,273z"/>
					<g>
						<defs>
							<path id="SVGID_1_" d="M256.335,273c0,0,37.333,81.333,238,74l1.333-68L256.335,273z"/>
						</defs>
						<clipPath id="SVGID_00000154393781921655582930000015394555973505625248_">
							<use xlink:href="#SVGID_1_"  style="overflow:visible;"/>
						</clipPath>
						<g style="clip-path:url(#SVGID_00000154393781921655582930000015394555973505625248_);">
							<rect x="477.501" y="278" style="fill:#FF6E00;" width="29.5" height="75.5"/>
							<rect x="460.001" y="278" style="fill:#221925;" width="17.5" height="75.5"/>
							<rect x="401.335" y="278" style="fill:#221925;" width="17.5" height="75.5"/>
							<rect x="443.001" y="278" style="fill:#006395;" width="17.5" height="75.5"/>
							<rect x="429.501" y="278" style="fill:#FFFFFF;" width="17.5" height="75.5"/>
						</g>
						<g style="clip-path:url(#SVGID_00000154393781921655582930000015394555973505625248_);">
							<rect x="477.501" y="278" style="fill:#FF6E00;" width="29.5" height="37.833"/>
							<rect x="460.001" y="278" style="fill:#006395;" width="17.5" height="37.833"/>
							<rect x="443.001" y="278" style="fill:#FF6E00;" width="17.5" height="37.833"/>
							<rect x="429.501" y="278" style="fill:#221925;" width="17.5" height="37.833"/>
						</g>
					</g>
				</g>
			</g>
			<g>
				<polygon style="fill:#006395;" points="489.263,275 519.891,281.667 633.281,301.667 593.53,332.333 488.001,286 				"/>
				<polygon style="fill:#FFAED5;" points="523.15,300.333 587.665,339 558.34,357.667 487.308,282.333 				"/>
				<polygon style="fill:#221925;" points="476.881,277.667 521.846,365.667 547.261,350.333 489.263,279.667 				"/>
				<polygon style="fill:#FF6E00;" points="340.335,275.667 677.898,301.667 731.335,268.333 403.546,263 				"/>
			</g>
			<g>
				<path style="fill:#221925;" d="M203.001,173.667c0,0,32,0,38.667,47.333c6.667,47.333,20,78.667,65.667,80
					s43-112.667,43-112.667s-24,0-34-36s-30-102-200-56L203.001,173.667z"/>
				<g>
					<defs>
						<path id="SVGID_00000044140604031025401150000008003100863288122763_" d="M203.001,173.667c0,0,32,0,38.667,47.333
							c6.667,47.333,20,78.667,65.667,80s43-112.667,43-112.667s-24,0-34-36s-30-102-200-56L203.001,173.667z"/>
					</defs>
					<clipPath id="SVGID_00000178166913672602499540000002783211718369432486_">
						<use xlink:href="#SVGID_00000044140604031025401150000008003100863288122763_"  style="overflow:visible;"/>
					</clipPath>
					<g style="clip-path:url(#SVGID_00000178166913672602499540000002783211718369432486_);">
						<g>
							<rect x="288.6" y="156.04" style="fill:#FFAED5;" width="92.535" height="92.535"/>
							<rect x="334.991" y="156.04" style="fill:#006395;" width="46.144" height="92.535"/>
						</g>
						<g>
							<rect x="196.064" y="156.04" style="fill:#FF6E00;" width="92.535" height="92.535"/>
							<rect x="242.269" y="202.246" style="fill:#006395;" width="46.33" height="46.33"/>
							<rect x="196.064" y="156.04" style="fill:#FFAED5;" width="46.33" height="46.33"/>
						</g>
					</g>
				</g>
			</g>
			<g>
				<g>
					<path style="fill:#006395;" d="M268.775,173.873c-19.417-47.817-66.32-81.54-121.107-81.54
						c-59.491,0-109.689,39.76-125.489,94.153L268.775,173.873z"/>
					<path style="fill:#FFAED5;" d="M107.882,98.504l37.605,81.676l123.288-6.306c-19.417-47.817-66.32-81.54-121.107-81.54
						C133.794,92.333,120.426,94.497,107.882,98.504z"/>
				</g>
				<g>
					<defs>
						<path id="SVGID_00000108279662338387961720000009738155658486886030_" d="M268.775,173.873
							c-19.417-47.817-66.32-81.54-121.107-81.54c-59.491,0-109.689,39.76-125.489,94.153L268.775,173.873z"/>
					</defs>
					<clipPath id="SVGID_00000013910619365481427210000009964601556122426506_">
						<use xlink:href="#SVGID_00000108279662338387961720000009738155658486886030_"  style="overflow:visible;"/>
					</clipPath>
					<g style="clip-path:url(#SVGID_00000013910619365481427210000009964601556122426506_);">
						<g>
							<path style="fill:#FF6E00;" d="M246.512,176.15c-15.911-39.183-54.345-66.817-99.24-66.817
								c-48.749,0-89.884,32.581-102.831,77.153L246.512,176.15z"/>
							<path style="fill:#221925;" d="M115.137,114.261c-34.018,10.694-60.723,37.893-70.696,72.226l101.558-5.195L115.137,114.261z
								"/>
						</g>
						<g>
							<path style="fill:#006395;" d="M222.941,178.562c-12.199-30.042-41.667-51.229-76.087-51.229
								c-37.376,0-68.914,24.98-78.84,59.153L222.941,178.562z"/>
							<path style="fill:#FFAED5;" d="M122.808,130.921c-26.365,8.067-47.09,29.043-54.795,55.565l78.529-4.017L122.808,130.921z"/>
						</g>
						<g>
							<path style="fill:#221925;" d="M194.131,181.509c-7.662-18.869-26.17-32.176-47.789-32.176
								c-23.475,0-43.284,15.689-49.519,37.153L194.131,181.509z"/>
							<path style="fill:#FF6E00;" d="M132.194,151.308c-17.013,4.846-30.44,18.201-35.371,35.178l50.382-2.577L132.194,151.308z"/>
						</g>
					</g>
				</g>
			</g>
			<g>
				<g>
					<g>
						<path style="fill:#FFAED5;" d="M269.259,245.166c0,34.334,27.833,62.167,62.167,62.167S579.41,279.5,579.41,245.166
							s-213.65-62.167-247.983-62.167S269.259,210.832,269.259,245.166z"/>
						<path style="fill:#221925;" d="M579.408,245.125c-0.17-34.315-213.661-62.126-247.981-62.126s-62.143,27.811-62.166,62.126
							H579.408z"/>
					</g>
					<g>
						<path style="fill:#006395;" d="M307.516,245.166c0,25.864,20.967,46.83,46.83,46.83s186.807-20.967,186.807-46.83
							c0-25.864-160.943-46.83-186.807-46.83S307.516,219.302,307.516,245.166z"/>
						<path style="fill:#FF6E00;" d="M541.151,245.125c-0.17-25.845-160.955-46.789-186.805-46.789s-46.807,20.945-46.829,46.789
							H541.151z"/>
					</g>
					<g>
						<path style="fill:#221925;" d="M352.604,245.166c0,15.881,12.874,28.756,28.755,28.756
							c15.881,0,114.706-12.874,114.706-28.756c0-15.881-98.825-28.755-114.706-28.755
							C365.478,216.411,352.604,229.285,352.604,245.166z"/>
						<path style="fill:#FFAED5;" d="M496.061,245.125c-0.17-15.862-98.835-28.714-114.702-28.714
							c-15.867,0-28.732,12.852-28.755,28.714H496.061z"/>
					</g>
					<g>
						<path style="fill:#FFFFFF;" d="M352.604,245.166c0,10.007,8.112,18.119,18.119,18.119c10.007,0,72.278-8.112,72.278-18.119
							c0-10.007-62.271-18.119-72.278-18.119C360.716,227.047,352.604,235.159,352.604,245.166z"/>
						<path style="fill:#221925;" d="M442.997,245.125c-0.17-9.988-62.281-18.078-72.274-18.078c-9.993,0-18.095,8.09-18.117,18.078
							H442.997z"/>
					</g>
				</g>
				<g>
					<g>
						<polygon style="fill:#FFAED5;" points="348.335,320.333 381.806,385.667 411.668,385.667 411.668,305 						"/>
						<polygon style="fill:#006395;" points="365.197,320.333 398.668,385.667 411.668,385.667 411.668,305 						"/>
						<polygon style="fill:#FF6E00;" points="399.001,353.334 411.668,386.667 313.001,390.001 312.335,416.001 307.001,417.501 
							306.335,380.001 391.001,371.334 						"/>
						<polygon style="fill:#FF6E00;" points="398.001,384 300.001,389.75 299.751,417.75 294.001,419.583 293.335,379.75 
							398.501,370.75 						"/>
						<polygon style="fill:#FF6E00;" points="326.001,388.25 325.335,414.25 320.001,415.75 319.751,381 						"/>
					</g>
					<circle style="fill:#FF6E00;" cx="377.626" cy="303.667" r="35.375"/>
				</g>
				<g>
					<g>
						<g>
							<circle style="fill:#006395;" cx="331.426" cy="245.166" r="62.167"/>
							<path style="fill:#FFAED5;" d="M375.385,289.125c0.101-0.101,0.193-0.207,0.293-0.308l-87.902-87.902
								c-0.101,0.1-0.207,0.192-0.308,0.293c-24.278,24.278-24.278,63.639,0,87.917
								C311.745,313.402,351.107,313.402,375.385,289.125z"/>
						</g>
						<g>
							<circle style="fill:#221925;" cx="331.426" cy="245.166" r="43.722"/>
							<path style="fill:#FF6E00;" d="M362.342,276.082c0.101-0.101,0.193-0.207,0.293-0.308l-61.816-61.816
								c-0.102,0.1-0.207,0.192-0.308,0.293c-17.074,17.074-17.074,44.757,0,61.832
								C317.585,293.156,345.268,293.156,362.342,276.082z"/>
						</g>
						<g>
							<circle style="fill:#FFFFFF;" cx="331.426" cy="245.166" r="23.227"/>
							<path style="fill:#221925;" d="M347.85,261.59c0.101-0.101,0.194-0.206,0.293-0.308l-32.833-32.833
								c-0.102,0.098-0.207,0.192-0.308,0.293c-9.071,9.071-9.071,23.777,0,32.848C324.073,270.661,338.779,270.661,347.85,261.59z"
								/>
						</g>
						<circle style="fill:#006395;" cx="331.426" cy="245.166" r="11.833"/>
					</g>
					<circle style="fill:none;stroke:#FFFFFF;stroke-width:2;stroke-miterlimit:10;" cx="331.426" cy="245.166" r="49.315"/>
				</g>
				<g>
					<circle style="fill:#FFFFFF;" cx="376.239" cy="305.054" r="20.809"/>
					<circle style="fill:#221925;" cx="376.239" cy="305.054" r="9.059"/>
				</g>
			</g>
			<g>
				<circle style="fill:#FFFFFF;" cx="251.001" cy="137.667" r="48"/>
				<g>
					<circle style="fill:#006395;" cx="251.001" cy="137.667" r="32"/>
					
						<ellipse transform="matrix(0.7071 -0.7071 0.7071 0.7071 -23.8285 217.8063)" style="fill:none;stroke:#221925;stroke-width:2;stroke-miterlimit:10;" cx="251.001" cy="137.667" rx="36.333" ry="36.333"/>
				</g>
				<g>
					
						<ellipse transform="matrix(0.7071 -0.7071 0.7071 0.7071 -23.8285 217.8063)" style="fill:#FF6E00;" cx="251.001" cy="137.667" rx="20.667" ry="20.667"/>
					
						<ellipse transform="matrix(0.7071 -0.7071 0.7071 0.7071 -23.8285 217.8063)" style="fill:#221925;" cx="251.001" cy="137.667" rx="12.667" ry="12.667"/>
				</g>
			</g>
		</g>
	</g>
</g>
</svg>
