<?xml version="1.0" encoding="utf-8"?>
<!-- Generator: Adobe Illustrator 27.5.0, SVG Export Plug-In . SVG Version: 6.00 Build 0)  -->
<svg version="1.1" xmlns="http://www.w3.org/2000/svg" xmlns:xlink="http://www.w3.org/1999/xlink" x="0px" y="0px"
	 viewBox="0 0 500 500" style="enable-background:new 0 0 500 500;" xml:space="preserve">
<g id="BACKGROUND">
	<rect style="fill:#FFFFFF;" width="500" height="500"/>
</g>
<g id="OBJECTS">
	<g>
		<path style="fill:#B1BEBE;" d="M313.32,191.605c0,0,5.318-54.295,56.325-57.176C369.645,134.429,352.464,186.525,313.32,191.605z"
			/>
		<path style="fill:#B1BEBE;" d="M317.974,202.75c0,0,26.575-27.707,56.033-7.096C374.007,195.654,341.829,216.981,317.974,202.75z"
			/>
	</g>
	<path style="fill:#E7AE5E;" d="M389.851,151.424c-1.555,14.46-12.585,15.775-12.585,15.775c10.28,1.595,12.585,14.18,12.585,14.18
		s2.304-12.584,12.584-14.18C402.435,167.199,391.446,166.312,389.851,151.424z"/>
	<g>
		<path style="fill:#B1BEBE;" d="M172.637,178.776c0,0,14.377-52.626-32.256-73.493
			C140.382,105.283,137.872,160.082,172.637,178.776z"/>
		<path style="fill:#B1BEBE;" d="M164.317,187.531c0,0-14.958-35.357-49.827-26.596C114.49,160.935,136.957,192.328,164.317,187.531
			z"/>
	</g>
	<path style="fill:#E7AE5E;" d="M109.536,112.991c2.107,14.39,13.179,15.282,13.179,15.282
		c-10.212,1.987-12.033,14.651-12.033,14.651s-2.784-12.487-13.118-13.688C97.565,129.236,108.512,127.929,109.536,112.991z"/>
	<g>
		<path style="fill:#152345;" d="M192.418,246.131c0,0,2.326,4.978,2.373,6.053c0.098,2.15,0.212,7.849,0.212,7.849
			c0.673,14.038,1.469,28.072,2.486,42.081c0.519,7.003,1.079,14.002,1.767,20.98c0.714,6.969,1.462,13.949,2.627,20.796
			l0.188,1.104l-0.953,0.69c-5.109,3.698-9.886,8.367-13.239,13.681c-0.842,1.331-1.567,2.72-2.169,4.145
			c-0.352,0.698-0.523,1.446-0.793,2.166c-0.058,0.178-0.134,0.37-0.177,0.537l-0.105,0.478c-0.093,0.315-0.078,0.645-0.132,0.965
			c-0.138,2.587,1.368,5.245,3.717,6.348c0.705,0.528,1.5,0.926,2.466,1.165l3.252,0.577l6.594,1.159l-6.868,0.584
			c-1.158,0.091-2.296,0.207-3.482,0.276c-1.31,0.01-2.648-0.282-3.896-0.825c-1.742-0.922-3.128-2.414-4.074-4.116
			c-0.892-1.73-1.367-3.718-1.169-5.677c0.063-0.968,0.336-1.98,0.619-2.761c0.285-0.829,0.541-1.674,0.923-2.455
			c0.352-0.797,0.694-1.6,1.13-2.345c0.407-0.764,0.821-1.523,1.301-2.235c1.837-2.909,4.029-5.535,6.4-7.952
			c2.398-2.418,4.908-4.596,7.747-6.615l-0.726,1.702c-1.216-7.139-1.969-14.273-2.695-21.414c-0.709-7.14-1.26-14.283-1.795-21.427
			c-0.896-12.546-1.631-25.097-2.253-37.653c-0.173-3.486-0.118-6.98,0.152-10.46L192.418,246.131z"/>
	</g>
	<g>
		<path style="fill:#152345;" d="M189.831,376.006c0.688-0.026,1.33,0.118,1.926,0.431c0.016,0.005,0.029,0.016,0.045,0.021
			c-1.611-3.982-1.628-8.569,0.572-12.252c0.203-0.34,0.294-0.73,0.244-1.123l-0.003-0.022c-0.114-0.909-0.943-1.574-1.854-1.47
			c-0.046,0.005-0.093,0.011-0.14,0.016c-0.536,0.064-1.01,0.391-1.269,0.864c-0.203,0.371-0.391,0.752-0.595,1.121
			c-0.023,0.04-0.044,0.081-0.063,0.123c-0.293,0.624-0.521,1.282-0.77,1.926c-0.021,0.055-0.04,0.11-0.056,0.167
			c-0.392,1.406-0.697,2.844-0.714,4.294c-0.082,2.154,0.258,4.267,0.899,6.268C188.609,376.108,189.2,375.982,189.831,376.006z"/>
	</g>
	<path style="fill:#152345;" d="M400.785,347.558c-0.726-9.571-3.206-18.92-6.763-27.743c-3.561-8.837-8.171-17.184-13.318-25.124
		c-10.333-15.889-22.739-30.184-35.284-44.154c-6.271-6.995-12.61-13.911-18.649-21.033c-2.982-3.582-5.958-7.179-8.596-10.966
		c-0.693-0.929-1.323-1.89-1.935-2.859c-0.617-0.969-1.264-1.91-1.82-2.939l-3.452-6.059c0,0,0,0-0.658-1.287
		c-0.329-0.644-0.823-1.609-1.564-3.057c-0.37-0.724-0.803-1.569-1.307-2.555c-0.464-1.006-0.994-2.156-1.599-3.47
		c-2.504-5.199-9.095-19.763-13.274-33.736c-2.169-6.949-3.895-13.665-5.003-18.654c-0.596-2.66-1.019-4.822-1.285-6.267
		c0.914-0.121,1.833-0.248,2.766-0.393c11.608-1.464,23.249-3.93,34.118-8.797c5.456-2.328,10.642-5.498,15.143-9.555l0.855-0.748
		l0.782-0.834l1.557-1.676c0.534-0.544,0.945-1.208,1.421-1.807c0.45-0.623,0.952-1.205,1.322-1.891
		c0.394-0.667,0.804-1.323,1.18-2.001l0.992-2.124c0.257-0.751,0.558-1.474,0.766-2.253c0.214-0.8,0.399-1.499,0.492-2.509
		l0.314-3.407l-3.006,1.808c-1.33,0.8-2.916,1.149-4.595,1.041c-0.658-0.044-1.324-0.16-1.986-0.313
		c2.568-2.042,4.864-4.469,6.688-7.252c1.214-1.892,2.189-3.942,2.889-6.09c0.363-1.07,0.615-2.178,0.824-3.296
		c0.179-1.154,0.316-2.202,0.281-3.535l-0.157-6.045l-3.075,5.272c-1.303,2.234-3.403,3.9-5.866,4.956
		c-2.463,1.071-5.25,1.566-8.061,1.672c-0.062,0.003-0.124,0-0.186,0.002c-2.166-0.745-4.264-1.62-6.257-2.636
		c0.812-2.335,1.267-4.741,1.631-7.138c0.307-2.49,0.453-4.983,0.428-7.463c-0.044-4.961-0.656-9.858-1.556-14.669
		c-0.92-4.811-2.143-9.542-3.592-14.195c-1.468-4.659-3.093-9.21-5.059-13.747l-0.66-1.524l-1.548,0.622
		c-6.13,2.463-11.928,5.806-17.054,10.001c-5.109,4.212-9.516,9.264-13.023,14.876c0,0-0.005,0.009-0.129,0.213
		c-1.07-0.499-2.149-0.978-3.245-1.419c-2.857-1.054-5.76-2.035-8.788-2.576c-1.492-0.359-3.039-0.467-4.562-0.68l-2.317-0.108
		c-0.386-0.013-0.775-0.038-1.157-0.041l-1.137,0.033c-5.41,0.124-10.84,0.872-16.049,2.443c-0.347-0.321-0.665-0.644-1.019-1.043
		c-5.068-5.4-10.844-9.977-16.936-13.972c-6.107-4.007-12.407-7.564-19.1-10.616l-1.601-0.73l-0.692,1.564l-1.427,3.224
		l-0.712,1.613c-0.218,0.545-0.395,1.108-0.594,1.661l-1.161,3.333l-0.898,3.415c-1.089,4.575-1.751,9.268-1.779,13.981
		c-0.02,4.708,0.452,9.421,1.523,14.014c0.534,2.298,1.204,4.561,2.063,6.796c0.354,0.895,0.742,1.786,1.156,2.665
		c0.918,1.947,2.072,3.774,3.408,5.459c-1.376,0.937-2.841,1.75-4.401,2.367c0,0,0,0-0.264,0.117
		c-0.258,0.132-0.82,0.288-1.915,0.671c-0.271,0.104-0.661,0.255-1.146,0.422c-0.483,0.17-1.042,0.421-1.674,0.64
		c-1.262,0.437-2.772,0.927-4.262,1.267c-1.095,0.276-2.171,0.461-3.097,0.598c-1.717-1.736-3.621-3.24-5.619-4.554
		c-1.262-0.831-2.567-1.583-3.906-2.267c-1.352-0.692-2.672-1.301-4.173-1.86l-2.056-0.766l-0.263,2.167
		c-0.383,3.159-0.473,6.18-0.395,9.276c0.086,3.078,0.39,6.161,0.97,9.213c0.595,3.048,1.45,6.077,2.773,8.955
		c0.58,1.297,1.523,2.741,2.594,4.145c2.208,2.894,4.931,5.367,8.035,7.27c0.027,0.017,0.045,0.027,0.071,0.042
		c-0.021,0.03-0.043,0.059-0.064,0.089c-0.66,0.921-1.286,1.795-1.286,1.795c1.681-0.281,3.346-0.629,5.016-1.011
		c7.036-4.123,13.667-8.897,19.743-14.349c6.027-5.489,11.512-11.685,15.739-18.768c0.436-1.829,0.818-3.638,1.196-5.395
		c-1.405,1.217-2.785,2.38-4.133,3.493c-3.939,6.642-9.127,12.555-14.885,17.829c-1.438,1.323-2.947,2.573-4.448,3.828
		c-0.638,0.501-1.274,1.005-1.913,1.505c-0.927-1.252-2.675-3.217-6.33-9.843c-0.513-0.931-0.983-1.892-1.405-2.867l-0.232-0.536
		l-1.02-2.141c-0.416-0.669-0.819-1.351-1.256-2.002c-0.48-0.615-0.93-1.26-1.439-1.845c-0.167-0.194-0.35-0.368-0.521-0.556
		c1.253,0.124,2.516,0.177,3.79,0.176c2.477-0.013,4.993-0.272,7.469-0.892c2.983-1.049,5.848-2.535,8.364-4.513
		c0.63-0.488,1.199-1.054,1.798-1.579c0.291-0.273,0.603-0.525,0.875-0.815l0.789-0.898c0.51-0.61,1.082-1.176,1.536-1.825
		l1.342-1.964c0.469-0.679,0.834-1.258,1.228-1.866l1.175-1.808l1.286-1.728l0.642-0.865l0.698-0.819l1.397-1.638
		c0.489-0.525,1-1.028,1.499-1.543c0.97-1.06,2.096-1.955,3.151-2.927c2.232-1.795,4.538-3.522,7.059-4.901
		c1.22-0.76,2.541-1.334,3.819-1.988c0.649-0.306,1.324-0.559,1.984-0.842c0.663-0.276,1.322-0.566,2.01-0.78
		c5.418-1.934,11.153-3.025,16.941-3.194l2.17-0.064l2.123,0.091c0.708,0.004,1.415,0.103,2.121,0.196
		c0.705,0.102,1.416,0.149,2.116,0.293c1.4,0.294,2.81,0.535,4.184,0.966c1.393,0.348,2.746,0.844,4.103,1.326
		c5.408,2.004,10.475,4.95,15.106,8.422c4.577,3.542,8.727,7.685,12.011,12.405l1.181,1.793l0.298,0.452
		c0.148,0.242,0.254,0.379,0.384,0.572c0.249,0.333,0.498,0.666,0.761,0.97c1.041,1.24,2.187,2.333,3.397,3.343
		c2.432,2,5.136,3.594,7.95,4.888c0.639,0.217,1.28,0.419,1.923,0.607c-0.551-0.043-1.103-0.063-1.654-0.079l-2.311-0.064
		c-1.535,0.083-3.08,0.103-4.605,0.279c-6.117,0.653-12.044,2.361-17.651,4.665c-5.613,2.316-10.909,5.244-16.011,8.412
		c-10.2,6.366-19.582,13.784-29.01,20.98c-4.717,3.595-9.451,7.145-14.339,10.409c-2.455,1.607-4.93,3.183-7.492,4.554
		c-2.545,1.409-5.172,2.633-7.865,3.567c0,0,0,0-0.627,0.214c-0.611,0.221-1.913,0.636-4.53,1.282
		c-1.306,0.335-3.742,0.996-6.712,1.471c-2.953,0.47-6.521,0.639-9.672-0.401c-1.566-0.515-2.991-1.36-4.059-2.446
		c-1.095-1.063-1.807-2.329-2.277-3.451c-0.451-1.134-0.666-2.135-0.766-2.838c-0.049-0.353-0.076-0.631-0.086-0.824
		c-0.007-0.199-0.011-0.305-0.011-0.305c-0.16,2.161,0.245,4.371,1.256,6.331c0.074-0.235,0.304-0.534-0.278-0.768
		c-1.748,0.432-5.244,0.488-6.947-0.313c-1.649-0.768-3.033-2.127-3.808-3.778c-0.791-1.634-0.951-3.576-0.43-5.285
		c0.491-1.681,1.754-2.93,3.514-3.677c0.577-0.776,1.341-1.501,2.198-2.179c-1.041-0.467-2.181-0.886-3.46-1.084
		c-6.227,4.961-4.426,12.253-2.974,14.451c3.119,4.723,9.104,4.812,11.718,4.455c1.163,2.131,2.686,4.567,4.207,6.505
		c1.786,2.25,3.918,4.327,6.534,5.797c2.602,1.486,5.646,2.247,8.65,2.373c3.014,0.138,5.978-0.248,8.854-0.784
		c1.341-0.339,2.661-0.714,3.971-1.104c-0.446,0.715-0.943,1.391-1.499,2.025c-0.533,0.641-1.071,1.269-1.68,1.845
		c-0.584,0.593-1.165,1.18-1.802,1.722c-2.472,2.224-5.133,4.228-7.878,6.107c-3.458,2.907-7.099,5.658-10.842,8.186
		c-0.942,0.643-1.864,1.226-2.801,1.782l-1.544,0.926l-1.501,0.996c-1.975,1.37-3.84,2.905-5.568,4.595
		c-1.708,1.714-3.249,3.598-4.61,5.613c-1.331,2.039-2.434,4.223-3.318,6.496c-1.689,4.579-1.553,10.007-1.291,14.809
		c1.864-4.722,7.424-9.405,11.068-12.924c1.832-1.761,3.918-3.205,6.193-4.119c0.924-0.372,1.883-0.621,2.854-0.801
		c-1.914,2.032-3.669,4.159-5.311,6.419c-1.264,1.757-2.439,3.58-3.53,5.455c-1.063,1.892-2.051,3.83-2.907,5.833
		c-1.7,4.006-2.923,8.249-3.475,12.602c-0.532,4.353-0.404,8.797,0.409,13.108c0.806,4.313,2.292,8.476,4.268,12.35
		c1.926,3.775,3.88,7.5,5.852,11.235c3.948,7.459,8,14.863,12.155,22.211c0,0,0,0,1.62,2.856c0.808,1.429,3.492,5.097,6.005,8.374
		c1.173,1.534,2.31,2.975,3.191,4.078c-0.051,0.351-0.104,0.702-0.153,1.054c-3.431,4.719-6.861,9.439-10.292,14.158
		c-0.117,0.16-0.233,0.321-0.35,0.481c-4.339-8.473-8.311-17.25-11.338-26.262c-1.065-3.172-2.078-6.447-2.501-9.777
		c-0.2-1.574-2.702-1.594-2.5,0c0.831,6.536,3.297,12.859,5.776,18.92c2.314,5.656,4.863,11.217,7.569,16.696
		c0.566,1.146,1.137,2.292,1.727,3.426c0.471,0.905,1.645,0.707,2.159,0c3.016-4.149,6.032-8.298,9.048-12.447
		c-0.489,3.789-0.944,7.581-1.353,11.376l-5.99,31.574c-3.586,2.624-6.921,5.436-10.069,8.561c-1.647,1.645-3.216,3.389-4.659,5.268
		c-1.434,1.883-2.742,3.923-3.678,6.242c-0.413,1.196-0.686,2.478-0.763,3.796c-0.096,1.32,0.143,2.691,0.621,3.956
		c1.028,2.535,3.277,4.368,5.777,4.976c0.327,0.071,0.59,0.146,0.999,0.168c0.352,0.016,0.63,0.011,0.931,0.003l1.747-0.071
		l3.46-0.211l5.985-0.445c-0.491,1.882-0.577,3.821-0.377,5.693c-7.114,2.841-13.967,6.472-20.047,11.29l-2.711,2.343
		c-0.447,0.396-0.913,0.771-1.344,1.184l-1.245,1.294c-0.821,0.87-1.677,1.71-2.468,2.608l-2.239,2.816
		c-0.785,0.91-1.389,1.954-2.056,2.951c-0.644,1.012-1.353,1.986-1.874,3.072l-1.674,3.189l-1.394,3.319
		c-1.712,4.481-2.847,9.165-3.427,13.903c-0.586,4.741-0.552,9.523-0.151,14.246c0.415,4.726,1.251,9.398,2.428,13.975
		c0.59,2.288,1.264,4.554,2.039,6.789c0.772,2.251,1.598,4.419,2.632,6.661l2.004,4.347l1.331-4.628
		c1.254-4.359,3.109-8.525,5.582-12.292c2.465-3.771,5.539-7.13,9.037-10.001c7.016-5.767,15.576-9.543,24.399-12.201
		c8.858-2.656,18.053-4.27,27.295-5.489c9.251-1.213,18.584-1.966,27.931-2.665c9.351-0.687,18.724-1.277,28.103-2.071
		c9.377-0.792,18.765-1.769,28.098-3.337c9.321-1.571,18.628-3.701,27.544-7.18c8.872-3.463,17.464-8.376,24.127-15.501
		c3.32-3.529,6.162-7.575,8.3-11.887l1.565-3.23l0.782-1.616l0.39-0.808l0.319-0.841l1.273-3.362l0.635-1.682
		c0.218-0.559,0.43-1.119,0.571-1.704C400.444,366.848,401.535,357.116,400.785,347.558z M194.705,95.562
		c0.277,0.552,0.571,1.299,0.856,1.938c5.057,9.261,7.013,11.563,8.002,12.394c-0.062,0.044-0.121,0.093-0.183,0.137
		c-3.164,2.315-6.438,4.495-9.82,6.479c0,0,0,0-0.708,0.403c-3.961-3.862-8.191-5.372-11.701-18.936
		c-0.551-2.848-0.844-5.769-0.929-8.7c-0.061-2.138-0.02-4.327,0.139-6.454c4.171,1.893,8.176,4.538,11.17,7.886
		c0.878,0.977,1.644,2.034,2.299,3.143C194.202,94.386,194.405,94.995,194.705,95.562z M229.799,59.123
		c-4.823,3.753-8.815,8.49-12.042,13.632c-0.42,0.67-0.802,1.199-1.196,1.782c-0.406,0.561-0.748,1.176-1.204,1.696l-1.366,1.562
		l-0.34,0.392l-0.385,0.346l-0.534,0.481c-1.098-1.438-2.854-4.119-4.058-6.955c-0.851-2.003-1.451-4.16-1.947-6.326
		c-1.044-4.325-1.491-8.798-1.49-13.256c0.031-4.464,0.637-8.911,1.666-13.254l0.849-3.241l1.102-3.168
		c0.188-0.526,0.357-1.06,0.561-1.581l0.68-1.536l0.327-0.74c0.157,0.156,0.336,0.321,0.562,0.505
		c0.494,0.403,0.985,0.818,1.44,1.265c4.481,4.39,8.533,9.263,11.814,14.571c2.614,4.244,4.699,8.833,5.841,13.607L229.799,59.123z
		 M237.419,54.072c-1.306,0.788-2.675,1.473-3.916,2.366l-0.374,0.253c-0.329-1.217-0.704-2.419-1.138-3.595
		c-1.24-3.278-2.81-6.398-4.605-9.357c-2.506-4.083-5.408-7.869-8.587-11.399c2.896,1.612,5.743,3.323,8.507,5.127
		c5.781,3.775,11.284,8.006,16.01,12.938c0,0,0.01,0.01,0.663,0.7C241.732,51.947,239.557,52.98,237.419,54.072z M307.032,69.2
		l-1.325-1.532c-0.491-0.584-1-1.151-1.543-1.684l-1.595-1.632c-0.546-0.529-1.118-1.029-1.676-1.545
		c-1.099-1.052-2.307-1.974-3.478-2.939c-2.925-2.296-6.055-4.325-9.338-6.077c0.642-1.029,1.32-2.037,1.998-3.045
		c0.983-1.266,1.901-2.586,2.983-3.774c2.042-2.48,4.399-4.675,6.815-6.785c4.247-3.588,9.051-6.486,14.14-8.766
		c0.015,0.159,0.032,0.326,0.058,0.514c0.161,1.158,0.304,2.323,0.354,3.491c0.278,6.481-0.127,13.021-1.52,19.308
		C311.775,59.875,309.886,64.884,307.032,69.2z M322.354,83.509c-2.513-1.128-4.9-2.516-7.028-4.198
		c-1.068-0.869-2.104-1.788-2.987-2.802c-0.415-0.487-0.894-1.067-1.151-1.484l-1.268-1.928l-0.637-0.961l-0.013-0.017
		c1.261-1.767,2.372-3.629,3.305-5.564c1.635-3.446,2.844-7.057,3.67-10.724c1.208-5.361,1.726-10.806,1.749-16.242
		c0.355,1.05,0.701,2.103,1.033,3.156c1.409,4.52,2.6,9.105,3.489,13.737c0.883,4.629,1.453,9.313,1.524,13.977
		C324.071,74.902,323.66,79.361,322.354,83.509z M222.003,151.079c-2.727,0.832-5.484,1.513-8.255,1.744
		c-2.761,0.226-5.562-0.019-8.127-1.092c-2.573-1.044-4.876-2.788-6.891-4.831c-1.721-1.794-4.386-6.276-4.276-6.487
		c0.099-0.185,0.183-0.366,0.255-0.537c0.167,0.259,0.339,0.516,0.53,0.763c1.776,2.329,4.526,3.742,7.286,4.423
		c2.787,0.66,5.638,0.746,8.421,0.562c2.789-0.19,5.528-0.66,8.226-1.252c0.753-0.219,1.503-0.407,2.258-0.652l2.265-0.775
		c0.75-0.268,1.466-0.599,2.2-0.897c0.738-0.292,1.448-0.629,2.151-0.979c2.85-1.338,5.529-2.928,8.165-4.558
		c5.236-3.312,10.195-6.947,15.069-10.639c9.744-7.379,19.233-14.999,29.4-21.503c5.081-3.24,10.329-6.197,15.801-8.58
		c5.459-2.405,11.191-4.129,17.032-4.843c1.456-0.236,2.924-0.255,4.389-0.341c0.733-0.066,1.464-0.002,2.197,0.008
		c0.731,0.026,1.465,0.029,2.195,0.072l2.174,0.244l1.087,0.12c0.369,0.042,0.827,0.119,1.214,0.153
		c1.609,0.174,3.203,0.227,4.809,0.19c3.2-0.111,6.462-0.567,9.557-1.875c1.249-0.512,2.464-1.191,3.591-2.009
		c-0.028,0.089-0.047,0.18-0.078,0.269c-0.602,1.846-1.444,3.621-2.5,5.269c-2.152,3.274-5.079,6.046-8.439,8.217l-2.555,1.651
		l2.672,1.348c1.086,0.548,2.034,0.881,3.101,1.185c1.047,0.288,2.133,0.48,3.247,0.553c1.07,0.076,2.175-0.013,3.265-0.229
		c-0.087,0.237-0.175,0.473-0.253,0.711l-0.846,1.813c-0.32,0.589-0.686,1.159-1.025,1.741c-0.316,0.596-0.759,1.119-1.161,1.667
		c-0.423,0.533-0.782,1.112-1.254,1.611l-1.401,1.505l-0.699,0.754c-0.249,0.237-0.518,0.456-0.776,0.685
		c-4.078,3.716-8.914,6.689-14.088,8.919c-10.292,4.645-21.574,7.094-32.888,8.548c-2.8,0.432-5.723,0.768-8.595,1.175l-4.31,0.682
		l-4.292,0.787c-5.711,1.11-11.371,2.476-16.959,4.068c-5.589,1.588-11.107,3.403-16.565,5.3
		C232.866,147.617,227.454,149.608,222.003,151.079z M213.302,280.233c-4.248-7.462-8.379-14.994-12.416-22.577
		c-2.016-3.793-4.008-7.599-5.977-11.416c-1.95-3.743-3.479-7.562-4.355-11.604c-1.812-8.05-0.772-16.569,2.428-24.221
		c1.596-3.834,3.678-7.479,6.103-10.887c2.428-3.372,5.242-6.63,8.255-9.323l3.094-2.766l-4.045-0.295
		c-1.486-0.109-2.992-0.127-4.481,0.096c-1.483,0.225-2.951,0.592-4.336,1.155c-2.779,1.115-5.23,2.836-7.314,4.838
		c-2.096,2-7.397,12.007-8.45,14.752c2.381-11.047,6.029-16.703,7.221-18.505c1.2-1.791,2.536-3.503,4.078-5.035
		c1.538-1.533,3.21-2.94,4.993-4.204c0.907-0.61,1.815-1.22,2.765-1.765l1.505-0.91c0.488-0.318,0.992-0.628,1.467-0.954
		c3.85-2.572,7.516-5.345,11.073-8.296c2.527-2.446,4.962-4.999,7.157-7.759l0.821-1.033l0.764-1.085l0.758-1.081l0.677-1.144
		c0.547-0.872,0.991-1.811,1.359-2.777c4.171-1.265,8.212-2.736,12.264-4.125c3.085-1.074,6.169-2.117,9.264-3.112
		c-3.281,6.934-5.886,14.182-7.978,21.622c-1.763,8.287-2.798,16.764-2.743,25.289c0.046,6.995,0.865,14.035,2.669,20.848
		c-0.064-0.043-0.129-0.085-0.193-0.128l-1.232-0.928c-1.614-1.276-3.062-2.752-4.303-4.375c-1.249-1.616-2.313-3.377-3.076-5.269
		c-0.61-1.345-1.013-2.768-1.335-4.214c-0.212-0.955-1.091-1.609-2.066-1.526c-1.038,0.088-1.828,0.979-1.788,2.019
		c0.356,9.208,1.128,18.329,2.255,27.453c0.306,2.432,0.643,4.86,1.01,7.285c0.175,1.209,0.293,2.349,0.445,3.527
		c0.117,1.169,0.135,2.338,0.21,3.508c0.074,4.676-0.753,9.343-1.816,14.051l-3.346,14.226c-1.047,4.783-2.061,9.58-2.887,14.407
		c-0.612,3.448-1.15,6.905-1.657,10.366C217.801,289.681,215.524,284.966,213.302,280.233z M206.335,376.377l-0.725-0.048
		c0.24-4.243,2.138-8.354,5.642-10.751c0.327-0.223,0.572-0.54,0.692-0.917l0.007-0.021c0.278-0.873-0.197-1.824-1.067-2.112
		c-0.044-0.015-0.089-0.029-0.134-0.044c-0.513-0.166-1.081-0.068-1.515,0.253c-0.34,0.252-0.671,0.519-1.01,0.768
		c-0.037,0.027-0.073,0.055-0.109,0.085c-0.527,0.444-1.01,0.946-1.506,1.426c-0.042,0.041-0.082,0.083-0.12,0.128
		c-0.945,1.112-1.824,2.29-2.447,3.6c-1.175,2.311-1.774,4.822-1.927,7.337l-0.8-0.067c-0.274-0.027-0.551-0.053-0.809-0.09
		c-0.309-0.04-0.392-0.056-0.667-0.152c-1.887-0.623-3.379-2.136-3.951-3.853c-0.556-1.723-0.261-3.612,0.54-5.397
		c0.659-1.929,1.804-3.813,3.112-5.59c1.313-1.782,2.827-3.463,4.412-5.08c3.19-3.205,6.75-6.201,10.404-8.835l0.623-0.449
		l0.137-0.722l6.12-32.264l0.014-0.073l0.008-0.077c0.404-3.76,0.855-7.513,1.337-11.261c0.264,5.058,0.528,10.116,0.792,15.174
		c0.075,1.43,0.149,2.859,0.224,4.289c0.074,1.411,2.011,1.693,2.455,0.332c3.827-11.721,7.793-23.451,12.428-34.88
		c0.246-0.607,0.493-1.219,0.743-1.831c-0.326,2.942-0.651,5.885-0.977,8.827c-0.939,8.49-1.879,16.98-2.819,25.47
		c-0.214,1.937-0.429,3.874-0.643,5.811c-0.153,1.381,1.685,1.491,2.329,0.631c5.458-7.288,11.018-14.522,16.855-21.512
		c0.173-0.207,0.351-0.41,0.524-0.617c-4.581,13.539-10.055,26.76-16.551,39.479l-0.207,0.406l0.024,0.44
		c0.076,1.427,0.135,2.879,0.18,4.318c0.492,3.104,0.959,6.215,1.199,9.351c-2.874,0.776-5.725,1.661-8.526,2.737
		c-4.77,1.85-9.49,4.174-13.499,7.71c-2.044,2.121-3.729,4.672-4.663,7.459c-0.107,0.307-0.197,0.618-0.281,0.929L206.335,376.377z
		 M277.95,356.115c2.697,0.396,5.42,0.664,8.131,0.856c3.552,0.251,7.207,0.366,10.819,0.121c-1.8,0.881-3.6,1.762-5.401,2.642
		c-1.205,0.59-0.497,2.242,0.631,2.329c5.379,0.415,10.758,0.829,16.137,1.244c-3.107,0.618-6.221,1.215-9.341,1.786
		c-9.096,1.655-18.234,3.16-27.377,4.656l-27.445,4.491c-4.563,0.702-9.173,1.649-13.772,2.546l-6.826,1.746
		c-1.145,0.263-2.26,0.642-3.379,1.008l-3.358,1.092c-1.546,0.533-3.081,1.113-4.609,1.716c0.236-2.052,0.835-4.009,1.838-5.702
		c1.272-2.231,3.105-4.018,5.161-5.456c3.447-3.174,7.871-5.422,12.423-7.212c4.582-1.78,9.384-3.095,14.247-4.153
		c9.728-2.07,19.77-3.215,29.698-3.6l2.43-0.094L277.95,356.115z M245.31,356.358c-1.844,0.399-3.681,0.85-5.512,1.332
		c0.697-2.952,1.192-5.974,1.665-8.982c-0.043-1.403-0.102-2.797-0.173-4.205c1.487-2.924,2.911-5.875,4.292-8.845
		c4.202,5.982,8.404,11.965,12.607,17.947c0.124,0.177,0.248,0.353,0.372,0.53C254.123,354.703,249.7,355.42,245.31,356.358z
		 M277.509,425.583c-9.533,0.688-19.083,1.448-28.613,2.639c-9.523,1.194-19.052,2.806-28.361,5.521
		c-4.648,1.362-9.237,3.01-13.659,5.089c-4.421,2.071-8.675,4.596-12.511,7.707c-3.84,3.096-7.256,6.769-9.991,10.906
		c-1.888,2.844-3.439,5.9-4.672,9.07c-0.264-0.704-0.52-1.411-0.762-2.117c-0.74-2.126-1.381-4.29-1.951-6.469
		c-1.127-4.363-1.931-8.808-2.34-13.281c-0.873-8.938,0.068-18.038,3.152-26.381c1.566-4.165,3.775-8.047,6.345-11.665l2.075-2.609
		l0.518-0.653l0.576-0.604l1.158-1.203l1.156-1.205l0.579-0.602l0.634-0.547l2.532-2.19c0.813-0.767,1.769-1.364,2.666-2.031
		l2.729-1.955l2.892-1.725l1.445-0.864l0.723-0.431l0.758-0.373l3.029-1.493c1.012-0.493,2.005-1.026,3.068-1.414l3.141-1.266
		c1.053-0.408,2.077-0.886,3.167-1.202c2.156-0.691,4.3-1.418,6.464-2.081l6.593-1.69c2.201-0.551,4.454-0.903,6.678-1.365
		c1.118-0.213,2.225-0.447,3.352-0.644l3.397-0.565l27.195-4.454c7.791-1.273,15.583-2.567,23.369-3.935
		c-0.038,0.12-0.072,0.242-0.111,0.362c-0.701,2.113-1.696,4.085-3.047,6.159c-4.944,7.594-12.862,12.818-21.042,16.375
		c-7.95,3.458-16.508,5.447-25.058,6.715c-0.799,0.118-1.136,1.216-0.747,1.836c2.177,3.475,5.832,6.256,9.137,8.544
		c9.924,6.869,21.885,10.613,33.646,12.795c4.068,0.754,8.166,1.321,12.279,1.736C291.913,424.585,284.709,425.054,277.509,425.583z
		 M395.333,370.822l-0.932,3.368c-0.165,0.558-0.287,1.13-0.487,1.677l-0.62,1.636l-1.238,3.273
		c-0.215,0.542-0.393,1.099-0.637,1.629l-0.765,1.577l-1.528,3.156l-0.763,1.578c-0.274,0.51-0.576,0.996-0.863,1.496l-0.872,1.488
		l-0.972,1.424c-0.331,0.469-0.631,0.962-0.986,1.413l-1.067,1.354c-2.872,3.59-6.284,6.744-10.051,9.433
		c-3.776,2.681-7.892,4.902-12.174,6.768c-8.586,3.721-17.783,6.075-27.083,7.767c-6.006,1.078-12.059,1.892-18.138,2.572
		c-15.866-0.135-31.996-1.913-46.898-7.504c-7.583-2.845-15.122-6.785-20.767-12.532c-0.37-0.377-0.703-0.787-1.051-1.184
		c12.874-2.088,25.993-6.004,36.396-14.097c5.332-4.148,9.936-9.529,12.277-15.937c0.256-0.702,0.481-1.42,0.658-2.148
		c0.368-0.066,0.736-0.125,1.103-0.191c9.057-1.644,18.114-3.387,27.087-5.672c5.979-1.658,11.929-3.549,17.651-6.093
		c1.412-0.683,2.862-1.265,4.229-2.05l2.072-1.116c0.678-0.398,1.337-0.833,2.005-1.247c1.36-0.79,2.582-1.81,3.857-2.734
		c0.608-0.505,1.187-1.047,1.78-1.569c0.292-0.266,0.595-0.52,0.877-0.796l0.807-0.874c0.521-0.596,1.107-1.134,1.572-1.778
		l1.418-1.906c0.455-0.646,0.818-1.355,1.229-2.029c0.194-0.344,0.412-0.675,0.585-1.029l0.484-1.081
		c0.299-0.73,0.696-1.419,0.91-2.179l0.728-2.242c0.225-0.751,0.35-1.527,0.529-2.288l0.248-1.146
		c0.067-0.385,0.101-0.774,0.153-1.16c0.834-6.195,0.327-12.429-0.703-18.5c0.725,5.952,0.934,12.02-0.092,17.884
		c-0.193,1.476-0.645,2.894-1.015,4.322c-0.204,0.709-0.508,1.385-0.755,2.078l-0.39,1.031c-0.151,0.335-0.328,0.657-0.491,0.986
		c-1.214,2.677-3.013,5.029-5.008,7.134l-1.556,1.53l-1.701,1.375c-0.549,0.478-1.157,0.885-1.768,1.286
		c-0.61,0.402-1.202,0.826-1.824,1.209c-2.534,1.468-5.138,2.82-7.886,3.892c-5.454,2.224-11.174,3.833-16.949,5.205
		c-2.988,0.798-6.006,1.511-9.033,2.194c-6.712-0.518-13.423-1.035-20.135-1.552c2.993-1.464,5.986-2.929,8.978-4.393
		c1.281-0.627,0.382-2.679-0.963-2.285c-6.014,1.764-12.526,1.662-18.723,1.225c-3.025-0.213-6.061-0.531-9.059-1.027
		c-2.379-6.888-4.138-13.988-4.797-21.189c-0.132-0.915-0.151-1.835-0.181-2.754l-0.102-2.757c-0.042-0.919,0.055-1.834,0.075-2.752
		c0.049-0.916,0.049-1.837,0.138-2.748l0.333-2.727l0.165-1.364l0.277-1.343l0.551-2.687c0.236-0.882,0.508-1.754,0.758-2.633
		l0.383-1.315c0.149-0.431,0.322-0.854,0.482-1.281l0.982-2.556c0.804-1.638,1.505-3.331,2.47-4.887
		c0.857-1.617,1.926-3.105,2.939-4.627c1.124-1.444,2.204-2.926,3.461-4.266c4.856-5.508,10.845-9.997,17.299-13.593
		c0,0,0,0,0.281-0.156c0.281-0.155,0.837-0.478,1.987-1.05c1.126-0.613,4.104-2.576,6.961-4.22c1.43-0.808,2.811-1.566,3.853-2.083
		c1.039-0.523,1.736-0.834,1.736-0.834c-5.106,0.911-10.071,2.469-14.937,4.425c-6.973,3.659-13.444,8.381-18.889,14.169
		c-2.721,2.896-5.097,6.116-7.165,9.518l-1.483,2.595l-1.285,2.7c-0.457,0.888-0.791,1.828-1.147,2.759
		c-0.334,0.938-0.759,1.846-1.015,2.81c-2.382,7.603-3.196,15.664-2.458,23.518c0.612,7.093,2.232,14.022,4.435,20.72
		c-3.472,0.168-6.909,0.444-10.343,0.807c-4.42-6.292-8.839-12.584-13.259-18.876c-0.654-0.932-1.309-1.863-1.963-2.795
		c-0.06-0.086-0.128-0.155-0.195-0.226c11.468-25.673,19.138-52.896,24.039-80.494c0,0,0,0,0.312-1.768
		c0.144-0.887,0.063-3.404-0.107-5.692c-0.155-2.288-0.409-4.337-0.409-4.337c-0.919,3.368-1.969,6.709-3.038,10.026
		c-2.836,16.331-6.668,32.547-11.681,48.369c-3.35,3.529-6.381,7.392-9.402,11.191c-3.147,3.958-6.236,7.96-9.298,11.984
		c0.426-3.852,0.853-7.703,1.279-11.555c0.939-8.49,1.879-16.98,2.819-25.47c0.214-1.937,0.429-3.874,0.643-5.811
		c0.144-1.303-1.729-1.6-2.329-0.631c-1.421,2.296-2.446,4.856-3.481,7.34c-1.481,3.553-2.844,7.154-4.174,10.765
		c-2.36,6.407-4.592,12.861-6.77,19.331c-0.417-7.988-0.834-15.976-1.251-23.964c-0.036-0.696-0.059-1.126-0.081-1.55
		c0.263-1.625,0.521-3.25,0.809-4.871c0.817-4.777,1.819-9.516,2.855-14.251l3.347-14.23c1.079-4.782,1.982-9.783,1.901-14.87
		c-0.076-1.261-0.101-2.531-0.225-3.784c-0.156-1.239-0.294-2.521-0.469-3.723c-0.362-2.393-0.695-4.79-0.998-7.193
		c-0.74-5.98-1.31-12.001-1.723-18.022c0.462,0.732,0.953,1.446,1.49,2.126c1.421,1.855,3.068,3.529,4.891,4.972
		c0.456,0.36,0.928,0.7,1.393,1.049c0.484,0.323,0.96,0.657,1.456,0.963c1.009,0.622,1.972,1.163,3.169,1.681l3.393,1.469
		l-1.188-3.556c-2.435-7.288-3.595-14.994-3.773-22.725c-0.18-7.74,0.629-15.508,2.081-23.146c0,0-0.036-0.007,0.887-4.214
		c0.454-2.101,1.399-7.976,2.655-13.283c0.613-2.654,1.274-5.165,1.803-7.008c0.082-0.289,0.16-0.555,0.236-0.81
		c2.248-0.719,4.5-1.416,6.765-2.065c5.533-1.594,11.123-2.964,16.765-4.08l4.241-0.787l4.259-0.68
		c1.913-0.294,3.806-0.522,5.725-0.776c0.609,4.991,1.473,9.934,2.459,14.861c1.116,5.583,2.473,11.119,4.004,16.611
		c3.082,10.976,6.901,21.779,11.668,32.203l3.297,6.44c1.137,2.127,2.375,4.201,3.558,6.304c2.436,4.196,5.276,8.226,8.28,11.976
		c5.987,7.574,12.448,14.637,18.822,21.752c12.786,14.167,25.508,28.378,36.279,43.98c5.37,7.793,10.24,15.929,14.15,24.491
		c3.904,8.552,6.832,17.555,8.137,26.808C398.17,352.336,397.628,361.798,395.333,370.822z M253.66,102.669
		c0,3.842,1.747,6.956,3.902,6.956c2.155,0,3.902-3.114,3.902-6.956c0-3.842-1.747-6.956-3.902-6.956
		C255.407,95.713,253.66,98.827,253.66,102.669z M220.258,97.536c0-0.006,0.001-0.012,0.001-0.018c0-3.842-1.747-6.956-3.902-6.956
		c-2.155,0-3.902,3.114-3.902,6.956c0,2.539,0.766,4.754,1.905,5.968C216.667,101.667,218.486,99.39,220.258,97.536z
		 M181.739,124.691c0,2.824,4.578,8.252,12.003,8.252s14.887-5.428,14.887-8.252c0-2.824-6.02-5.113-13.445-5.113
		C187.759,119.578,181.739,121.867,181.739,124.691z"/>
	<path style="fill:#152345;" d="M191.584,140.486"/>
</g>
</svg>
